<svg xmlns="http://www.w3.org/2000/svg" width="14.333" height="19.909" viewBox="0 0 14.333 19.909">
  <g id="Grupo_45" data-name="Grupo 45" transform="translate(-38 -654)">
    <g id="Grupo_33" data-name="Grupo 33" transform="translate(266 -179)">
      <g id="_014-drop" data-name="014-drop" transform="translate(-228 833)">
        <g id="Grupo_30" data-name="Grupo 30" transform="translate(0 0)">
          <g id="Grupo_29" data-name="Grupo 29" transform="translate(0)">
            <path id="Caminho_14" data-name="Caminho 14" d="M50.238,2.2c-.46-.676-.865-1.3-1.244-1.866a.823.823,0,0,0-.216-.216A.7.7,0,0,0,47.8.329C47.452.9,47.046,1.492,46.56,2.2c-2.136,3.137-5.328,7.87-5.328,10.574a7.135,7.135,0,0,0,2.109,5.057A7.225,7.225,0,0,0,48.4,19.909a7.2,7.2,0,0,0,7.167-7.167C55.565,10.038,52.374,5.332,50.238,2.2Zm2.245,14.631A5.72,5.72,0,0,1,48.4,18.5a5.834,5.834,0,0,1-4.084-1.677,5.72,5.72,0,0,1-1.677-4.084c0-2.272,3.056-6.788,5.084-9.79.243-.352.46-.7.676-1,.216.3.433.649.676,1,2.028,3.029,5.084,7.518,5.084,9.79A5.834,5.834,0,0,1,52.482,16.826Z" transform="translate(-41.232 0)" fill="#2d2d2d"/>
          </g>
        </g>
        <g id="Grupo_32" data-name="Grupo 32" transform="translate(8.513 12.254)">
          <g id="Grupo_31" data-name="Grupo 31" transform="translate(0)">
            <path id="Caminho_15" data-name="Caminho 15" d="M170,181.241a.693.693,0,0,0-.73.649,3.482,3.482,0,0,1-.514,1.65,3.287,3.287,0,0,1-1.244,1.19.715.715,0,0,0,.7,1.244,4.686,4.686,0,0,0,1.731-1.677,4.6,4.6,0,0,0,.7-2.326A.693.693,0,0,0,170,181.241Z" transform="translate(-167.152 -181.24)" fill="#2d2d2d"/>
          </g>
        </g>
      </g>
    </g>
  </g>
</svg>
