<svg xmlns="http://www.w3.org/2000/svg" width="103.055" height="103.055" viewBox="0 0 103.055 103.055">
  <path id="Icon_material-my-location" data-name="Icon material-my-location" d="M52.151,33.733A18.419,18.419,0,1,0,70.57,52.151,18.414,18.414,0,0,0,52.151,33.733ZM93.317,47.546A41.415,41.415,0,0,0,56.756,10.986V1.5H47.546v9.486A41.415,41.415,0,0,0,10.986,47.546H1.5v9.209h9.486A41.415,41.415,0,0,0,47.546,93.317V102.8h9.209V93.317A41.415,41.415,0,0,0,93.317,56.756H102.8V47.546ZM52.151,84.384A32.233,32.233,0,1,1,84.384,52.151,32.209,32.209,0,0,1,52.151,84.384Z" transform="translate(-1.526 0.294) rotate(-1)" fill="#fff"/>
</svg>
