<svg xmlns="http://www.w3.org/2000/svg" width="16.294" height="25" viewBox="0 0 16.294 25">
  <g id="Grupo_44" data-name="Grupo 44" transform="translate(-38 -582)">
    <g id="Grupo_26" data-name="Grupo 26" transform="translate(16 -98)">
      <g id="_002-temperature-1" data-name="002-temperature-1" transform="translate(22 680)">
        <g id="Grupo_15" data-name="Grupo 15" transform="translate(2.618 9.147)">
          <g id="Grupo_14" data-name="Grupo 14" transform="translate(0)">
            <path id="Caminho_7" data-name="Caminho 7" d="M102.329,132.782a5.521,5.521,0,0,0-.353-.882,3.652,3.652,0,0,0-.559-.765,4.816,4.816,0,0,0-.735-.618l-.265-.176v-.294l.069-6.794a1.716,1.716,0,0,0-1.118-1.647,1.63,1.63,0,0,0-1.353,0,1.787,1.787,0,0,0-1.118,1.647l-.069,6.794v.294l-.265.176a3.724,3.724,0,0,0-.735.618,3.39,3.39,0,0,0-.559.765,4.605,4.605,0,0,0-.353.882,3.3,3.3,0,0,0-.118.941,4.226,4.226,0,0,0,.294,1.471,3.951,3.951,0,0,0,.824,1.235,3.5,3.5,0,0,0,1.235.824,3.972,3.972,0,0,0,1.471.294,4.227,4.227,0,0,0,1.471-.294,3.951,3.951,0,0,0,1.235-.824,3.5,3.5,0,0,0,.824-1.235,3.972,3.972,0,0,0,.294-1.471A3.3,3.3,0,0,0,102.329,132.782Zm-1.588,1.853a2.376,2.376,0,0,1-1.235,1.235,2.294,2.294,0,0,1-1.765,0,2.376,2.376,0,0,1-1.235-1.235,2.149,2.149,0,0,1-.176-.882,3.62,3.62,0,0,1,.059-.588,2.209,2.209,0,0,1,.206-.529,1.8,1.8,0,0,1,.353-.471,2.747,2.747,0,0,1,.441-.382l.618-.382.353-.235v-1.147l.069-6.765a.108.108,0,0,1,.029-.088c0-.029.029-.059.059-.088l.029-.029c.029,0,.029-.029.059-.029s.059-.029.118-.029a.177.177,0,0,1,.118.029c.029,0,.029.029.059.029l.029.029c.029.029.059.059.059.088s.029.059.029.088l-.069,6.794v1.147l.353.235.618.382a1.88,1.88,0,0,1,.441.382,2.809,2.809,0,0,1,.353.471,3.926,3.926,0,0,1,.206.529,1.905,1.905,0,0,1,.059.588A4.055,4.055,0,0,1,100.741,134.635Z" transform="translate(-94.8 -124.4)" fill="#2d2d2d"/>
          </g>
        </g>
        <g id="Grupo_17" data-name="Grupo 17" transform="translate(11.353 3.471)">
          <g id="Grupo_16" data-name="Grupo 16" transform="translate(0)">
            <path id="Caminho_8" data-name="Caminho 8" d="M216.6,47.2h-2.235a.8.8,0,0,0-.765.765.759.759,0,0,0,.765.765H216.6a.765.765,0,1,0,0-1.529Z" transform="translate(-213.6 -47.2)" fill="#2d2d2d"/>
          </g>
        </g>
        <g id="Grupo_19" data-name="Grupo 19" transform="translate(11.353 8.676)">
          <g id="Grupo_18" data-name="Grupo 18" transform="translate(0)">
            <path id="Caminho_9" data-name="Caminho 9" d="M216.6,118h-2.235a.759.759,0,0,0-.765.765.779.779,0,0,0,.765.765H216.6a.765.765,0,1,0,0-1.529Z" transform="translate(-213.6 -118)" fill="#2d2d2d"/>
          </g>
        </g>
        <g id="Grupo_21" data-name="Grupo 21" transform="translate(11.353 11.294)">
          <g id="Grupo_20" data-name="Grupo 20" transform="translate(0)">
            <path id="Caminho_10" data-name="Caminho 10" d="M217.776,153.6h-3.412a.765.765,0,1,0,0,1.529h3.412a.759.759,0,0,0,.765-.765A.778.778,0,0,0,217.776,153.6Z" transform="translate(-213.6 -153.6)" fill="#2d2d2d"/>
          </g>
        </g>
        <g id="Grupo_23" data-name="Grupo 23">
          <g id="Grupo_22" data-name="Grupo 22">
            <path id="Caminho_11" data-name="Caminho 11" d="M71.935,16.941a7.515,7.515,0,0,0-.647-1.559,5.44,5.44,0,0,0-.676-1c-.176-.206-.382-.412-.559-.618V4.412a4.479,4.479,0,0,0-.324-1.676,4.423,4.423,0,0,0-8.176,0,4.6,4.6,0,0,0-.324,1.676v9.382a3.784,3.784,0,0,0-.559.618,7.464,7.464,0,0,0-.676,1,5.493,5.493,0,0,0-.588,1.5,5.953,5.953,0,0,0-.206,1.618A6.284,6.284,0,0,0,59.7,21a6.392,6.392,0,0,0,1.412,2.088A6.884,6.884,0,0,0,63.2,24.5a6.284,6.284,0,0,0,2.471.5,6.445,6.445,0,0,0,4.559-1.882,6.884,6.884,0,0,0,1.412-2.088,6.284,6.284,0,0,0,.5-2.471A5.953,5.953,0,0,0,71.935,16.941ZM70.2,20.382A4.9,4.9,0,0,1,69.112,22a4.984,4.984,0,0,1-3.5,1.441,4.971,4.971,0,0,1-3.5-1.471,5.057,5.057,0,0,1-1.088-1.618,5.121,5.121,0,0,1-.382-1.882,5.468,5.468,0,0,1,.147-1.235,3.931,3.931,0,0,1,.471-1.147,6.842,6.842,0,0,1,.5-.765,6.718,6.718,0,0,1,.647-.647l.265-.235V4.412a3.58,3.58,0,0,1,.206-1.118,3.449,3.449,0,0,1,.559-.882l.059-.059a2.987,2.987,0,0,1,.941-.647A2.8,2.8,0,0,1,65.553,1.5a3.58,3.58,0,0,1,1.118.206,2.572,2.572,0,0,1,.941.647l.059.059a2.869,2.869,0,0,1,.765,2V14.5l.265.235a6.718,6.718,0,0,1,.647.647,6.841,6.841,0,0,1,.5.765,5.539,5.539,0,0,1,.471,1.147,5.468,5.468,0,0,1,.147,1.235A3.294,3.294,0,0,1,70.2,20.382Z" transform="translate(-59.2)" fill="#2d2d2d"/>
          </g>
        </g>
        <g id="Grupo_25" data-name="Grupo 25" transform="translate(11.353 6.088)">
          <g id="Grupo_24" data-name="Grupo 24" transform="translate(0)">
            <path id="Caminho_12" data-name="Caminho 12" d="M217.776,82.8h-3.412a.765.765,0,1,0,0,1.529h3.412a.759.759,0,0,0,.765-.765A.778.778,0,0,0,217.776,82.8Z" transform="translate(-213.6 -82.8)" fill="#2d2d2d"/>
          </g>
        </g>
      </g>
    </g>
  </g>
</svg>
