<svg xmlns="http://www.w3.org/2000/svg" width="19.27" height="17.656" viewBox="0 0 19.27 17.656">
  <g id="Grupo_47" data-name="Grupo 47" transform="translate(-214.73 -654)">
    <g id="Grupo_38" data-name="Grupo 38" transform="translate(110.73 -144)">
      <g id="_013-wind" data-name="013-wind" transform="translate(104 798)">
        <g id="Grupo_35" data-name="Grupo 35" transform="translate(0 10.312)">
          <g id="Grupo_34" data-name="Grupo 34">
            <path id="Caminho_16" data-name="Caminho 16" d="M13.567,171.868a3.639,3.639,0,0,0-2.6-1.068H.677a.672.672,0,0,0-.677.677.685.685,0,0,0,.677.651H10.963a2.409,2.409,0,0,1,1.667.677,2.362,2.362,0,0,1,.677,1.667,2.409,2.409,0,0,1-.677,1.667,2.362,2.362,0,0,1-1.667.677,2.409,2.409,0,0,1-1.667-.677,2.362,2.362,0,0,1-.677-1.667.689.689,0,0,0-.677-.677.667.667,0,0,0-.651.677,3.749,3.749,0,0,0,1.068,2.6,3.639,3.639,0,0,0,2.6,1.068,3.749,3.749,0,0,0,2.6-1.068,3.639,3.639,0,0,0,1.068-2.6A3.749,3.749,0,0,0,13.567,171.868Z" transform="translate(0 -170.8)"/>
          </g>
        </g>
        <g id="Grupo_37" data-name="Grupo 37" transform="translate(0.859 0)">
          <g id="Grupo_36" data-name="Grupo 36">
            <path id="Caminho_17" data-name="Caminho 17" d="M30.283,13.728a4.486,4.486,0,0,0-3.2-1.328,4.548,4.548,0,0,0-3.2,1.328,4.486,4.486,0,0,0-1.328,3.2.677.677,0,0,0,1.354,0,3.2,3.2,0,1,1,3.2,3.2H13.877a.672.672,0,0,0-.677.677.615.615,0,0,0,.651.651H27.08a4.548,4.548,0,0,0,3.2-1.328,4.486,4.486,0,0,0,1.328-3.2A4.548,4.548,0,0,0,30.283,13.728Z" transform="translate(-13.2 -12.4)"/>
          </g>
        </g>
      </g>
    </g>
  </g>
</svg>
