<svg xmlns="http://www.w3.org/2000/svg" width="205.5" height="131.669" viewBox="0 0 205.5 131.669">
  <g id="_02d" data-name="02d" transform="translate(0 -67.4)">
    <g id="Grupo_50" data-name="Grupo 50" transform="translate(0 67.4)">
      <path id="Caminho_20" data-name="Caminho 20" d="M191.479,116.694A48,48,0,0,0,157.3,102.672a32.357,32.357,0,0,0-4.6.219A61.186,61.186,0,0,0,97.273,67.4a60.91,60.91,0,0,0-59.591,47.322A42.323,42.323,0,0,0,0,156.786a42.262,42.262,0,0,0,42.5,42.283H157.3a48.924,48.924,0,0,0,34.177-14.021A48,48,0,0,0,205.5,150.871,48.924,48.924,0,0,0,191.479,116.694Zm-8.763,60.029a36.591,36.591,0,0,1-26.071,10.735H42.5a30.425,30.425,0,0,1-21.908-9.2,30.805,30.805,0,0,1-9.2-21.908,31.417,31.417,0,0,1,8.982-21.689,30.805,30.805,0,0,1,21.908-9.2,4.416,4.416,0,0,0,2.41-.657h.219a5.373,5.373,0,0,0,2.41-3.943A48.744,48.744,0,0,1,64.191,90.623a50.147,50.147,0,0,1,32.424-12.05A50.393,50.393,0,0,1,140.87,105.3c-1.314.438-2.629,1.1-3.943,1.534a48.271,48.271,0,0,0-16.212,12.05,5.586,5.586,0,0,0,8.325,7.449,37.021,37.021,0,0,1,12.488-9.2,35.406,35.406,0,0,1,15.117-3.286,36.87,36.87,0,0,1,26.071,62.877Z" transform="translate(0 -67.4)" fill="#fff"/>
    </g>
  </g>
</svg>
