<svg xmlns="http://www.w3.org/2000/svg" width="203.166" height="142" viewBox="0 0 203.166 142">
  <g id="Grupo_13" data-name="Grupo 13" transform="translate(0 -67.8)">
    <g id="Grupo_2" data-name="Grupo 2" transform="translate(0 101.721)">
      <g id="Grupo_1" data-name="Grupo 1">
        <path id="Caminho_1" data-name="Caminho 1" d="M168.884,177.282a33.653,33.653,0,0,0-10.1-24.178A34.4,34.4,0,0,0,134.6,143a35.164,35.164,0,0,0-17.682,4.872A36.37,36.37,0,0,0,107,156.893c-.722-.541-1.624-1.263-2.346-1.8a48.35,48.35,0,0,0-59.182,3.067,49.541,49.541,0,0,0-15.7,25.8A33.648,33.648,0,0,0,0,217.338a33.883,33.883,0,0,0,33.741,33.741H124.5a38.5,38.5,0,0,0,38.432-38.432,34.6,34.6,0,0,0-2.346-12.991,31.384,31.384,0,0,0,5.593-9.022A33.967,33.967,0,0,0,168.884,177.282Zm-24.178,56.656a28.888,28.888,0,0,1-20.569,8.48H34.1a28.186,28.186,0,0,1-17.321-7.939,24.436,24.436,0,0,1-7.217-17.141A23.7,23.7,0,0,1,16.78,200.2a24.436,24.436,0,0,1,17.141-7.217,4.286,4.286,0,0,0,2.165-.541,4.428,4.428,0,0,0,1.985-3.067,39.216,39.216,0,0,1,61.166-26.163A38.043,38.043,0,0,1,111.507,177.1a13.967,13.967,0,0,0-2.887,1.263,37.393,37.393,0,0,0-12.991,9.563,4.6,4.6,0,0,0,6.856,6.135,29.052,29.052,0,0,1,42.221-1.263,29.186,29.186,0,0,1,0,41.139Zm13.172-47.093a33.645,33.645,0,0,1-1.8,3.609,36.818,36.818,0,0,0-4.15-4.872A38.17,38.17,0,0,0,124.859,174.4a21.835,21.835,0,0,0-3.428.18,45.654,45.654,0,0,0-7.217-11.187,25.9,25.9,0,0,1,7.759-7.578,24.689,24.689,0,0,1,12.991-3.609,24.646,24.646,0,0,1,24.9,24.9A25.409,25.409,0,0,1,157.878,186.845Z" transform="translate(0 -143)" fill="#fff"/>
      </g>
    </g>
    <g id="Grupo_4" data-name="Grupo 4" transform="translate(165.366 86.294)">
      <g id="Grupo_3" data-name="Grupo 3">
        <path id="Caminho_2" data-name="Caminho 2" d="M384.373,110.153a4.574,4.574,0,0,0-6.5,0l-9.924,9.924a4.593,4.593,0,1,0,6.5,6.5l9.924-9.924A4.574,4.574,0,0,0,384.373,110.153Z" transform="translate(-366.6 -108.8)" fill="#f8d215"/>
      </g>
    </g>
    <g id="Grupo_6" data-name="Grupo 6" transform="translate(130.272 67.8)">
      <g id="Grupo_5" data-name="Grupo 5">
        <path id="Caminho_3" data-name="Caminho 3" d="M293.491,67.8a4.622,4.622,0,0,0-4.691,4.511V86.384a4.691,4.691,0,0,0,9.382,0V72.491A4.777,4.777,0,0,0,293.491,67.8Z" transform="translate(-288.8 -67.8)" fill="#f8d215"/>
      </g>
    </g>
    <g id="Grupo_8" data-name="Grupo 8" transform="translate(85.254 86.294)">
      <g id="Grupo_7" data-name="Grupo 7">
        <path id="Caminho_4" data-name="Caminho 4" d="M206.773,120.077l-9.924-9.924a4.593,4.593,0,0,0-6.5,6.5l9.924,9.924a4.593,4.593,0,0,0,6.5-6.5Z" transform="translate(-189 -108.8)" fill="#f8d215"/>
      </g>
    </g>
    <g id="Grupo_10" data-name="Grupo 10" transform="translate(179.891 131.312)">
      <g id="Grupo_9" data-name="Grupo 9" transform="translate(0 0)">
        <path id="Caminho_5" data-name="Caminho 5" d="M417.384,208.6H403.491a4.691,4.691,0,0,0,0,9.382h13.893a4.777,4.777,0,0,0,4.691-4.691A4.659,4.659,0,0,0,417.384,208.6Z" transform="translate(-398.8 -208.6)" fill="#f8d215"/>
      </g>
    </g>
    <g id="Grupo_12" data-name="Grupo 12" transform="translate(165.366 166.406)">
      <g id="Grupo_11" data-name="Grupo 11">
        <path id="Caminho_6" data-name="Caminho 6" d="M384.373,297.677l-9.924-9.924a4.593,4.593,0,1,0-6.5,6.5l9.924,9.924a4.593,4.593,0,0,0,6.5-6.5Z" transform="translate(-366.6 -286.4)" fill="#f8d215"/>
      </g>
    </g>
  </g>
</svg>
