<svg xmlns="http://www.w3.org/2000/svg" width="166" height="106.36" viewBox="0 0 166 106.36">
  <g id="_03n" data-name="03n" transform="translate(0 -67.4)">
    <g id="Grupo_48" data-name="Grupo 48" transform="translate(0 67.4)">
      <path id="Caminho_18" data-name="Caminho 18" d="M154.674,107.219a38.771,38.771,0,0,0-27.608-11.326,26.139,26.139,0,0,0-3.716.177A49.425,49.425,0,0,0,78.576,67.4a49.2,49.2,0,0,0-48.136,38.226A34.188,34.188,0,0,0,0,139.6,34.139,34.139,0,0,0,34.333,173.76h92.733a39.52,39.52,0,0,0,27.608-11.326A38.771,38.771,0,0,0,166,134.826,39.52,39.52,0,0,0,154.674,107.219Zm-7.079,48.49a29.558,29.558,0,0,1-21.06,8.672h-92.2a24.577,24.577,0,0,1-17.7-7.433,24.884,24.884,0,0,1-7.433-17.7,25.378,25.378,0,0,1,7.256-17.52,24.884,24.884,0,0,1,17.7-7.433,3.567,3.567,0,0,0,1.947-.531h.177a4.34,4.34,0,0,0,1.947-3.186A39.375,39.375,0,0,1,51.853,86.159a40.508,40.508,0,0,1,26.192-9.733,40.706,40.706,0,0,1,35.748,21.591c-1.062.354-2.124.885-3.186,1.239a38.992,38.992,0,0,0-13.1,9.733,4.512,4.512,0,0,0,6.725,6.017,29.9,29.9,0,0,1,10.087-7.433,28.6,28.6,0,0,1,12.211-2.655,29.783,29.783,0,0,1,21.06,50.791Z" transform="translate(0 -67.4)" fill="#fff"/>
    </g>
  </g>
</svg>
