<svg xmlns="http://www.w3.org/2000/svg" width="157.5" height="150.806" viewBox="0 0 157.5 150.806">
  <g id="_09n" data-name="09n" transform="translate(0 -6.987)">
    <g id="Grupo_51" data-name="Grupo 51" transform="translate(0 6.987)">
      <g id="Grupo_50" data-name="Grupo 50">
        <path id="Caminho_20" data-name="Caminho 20" d="M146.578,44.733a37.361,37.361,0,0,0-26.442-10.922,16.482,16.482,0,0,0-3.066.192A47.078,47.078,0,0,0,43.878,18.292,47.889,47.889,0,0,0,28.741,43.009,33.1,33.1,0,0,0,9.58,52.4a32.843,32.843,0,0,0,0,46.369,32.237,32.237,0,0,0,23.376,9.772h87.181a37.394,37.394,0,0,0,26.442-63.8Zm-7.664,45.985a27.39,27.39,0,0,1-19.352,8.047H32.956A22.9,22.9,0,0,1,9.964,75.774,22.229,22.229,0,0,1,16.67,59.487a22.877,22.877,0,0,1,16.286-6.706,4.551,4.551,0,0,0,2.3-.575,4.7,4.7,0,0,0,2.108-3.257A37,37,0,0,1,49.818,26.339a37.241,37.241,0,0,1,45.6-2.3,35.955,35.955,0,0,1,11.3,12.646c-.766.383-1.533.575-2.3.958a39.745,39.745,0,0,0-12.646,9.2,4.885,4.885,0,0,0,7.281,6.515,32.192,32.192,0,0,1,9.2-6.9,27.859,27.859,0,0,1,11.3-2.491,27.054,27.054,0,0,1,19.352,8.047,27.292,27.292,0,0,1,0,38.7Z" transform="translate(0 -6.987)" fill="#fff"/>
      </g>
    </g>
    <g id="Grupo_53" data-name="Grupo 53" transform="translate(60.739 110.806)">
      <g id="Grupo_52" data-name="Grupo 52">
        <path id="Caminho_21" data-name="Caminho 21" d="M151.326,229.693a30.143,30.143,0,0,1-2.3-3.641,5.832,5.832,0,0,0-1.533-1.533,4.992,4.992,0,0,0-6.9,1.533c-.958,1.341-1.533,2.491-2.491,3.641-4.6,6.706-11.3,16.67-11.3,23.184A17.665,17.665,0,0,0,144.619,270.7a17.034,17.034,0,0,0,12.838-5.173,17.648,17.648,0,0,0,5.173-12.646C162.63,246.363,155.924,236.4,151.326,229.693Zm-.766,28.932a7.8,7.8,0,0,1-5.748,2.3,8.632,8.632,0,0,1-5.748-2.3,7.8,7.8,0,0,1-2.3-5.748c0-3.066,4.407-9.964,8.047-15.328,3.641,5.365,8.047,12.263,8.047,15.328A8.632,8.632,0,0,1,150.559,258.625Z" transform="translate(-126.8 -223.722)" fill="#fff"/>
      </g>
    </g>
    <g id="Grupo_55" data-name="Grupo 55" transform="translate(101.551 110.806)">
      <g id="Grupo_54" data-name="Grupo 54">
        <path id="Caminho_22" data-name="Caminho 22" d="M236.526,229.693a30.141,30.141,0,0,1-2.3-3.641,5.831,5.831,0,0,0-1.533-1.533,4.992,4.992,0,0,0-6.9,1.533,29.929,29.929,0,0,1-2.491,3.641c-4.6,6.706-11.3,16.67-11.3,23.184A17.665,17.665,0,0,0,229.819,270.7a16.9,16.9,0,0,0,12.646-5.173,17.813,17.813,0,0,0,5.365-12.646C247.83,246.363,241.124,236.4,236.526,229.693Zm-.958,28.932a7.8,7.8,0,0,1-5.748,2.3,8.632,8.632,0,0,1-5.748-2.3,7.8,7.8,0,0,1-2.3-5.748c0-3.066,4.407-9.964,8.047-15.328,3.641,5.365,8.047,12.263,8.047,15.328A8.632,8.632,0,0,1,235.568,258.625Z" transform="translate(-212 -223.722)" fill="#fff"/>
      </g>
    </g>
    <g id="Grupo_57" data-name="Grupo 57" transform="translate(20.119 110.806)">
      <g id="Grupo_56" data-name="Grupo 56">
        <path id="Caminho_23" data-name="Caminho 23" d="M66.334,229.693a30.145,30.145,0,0,1-2.3-3.641c-.192-.575-.766-.958-1.341-1.533a4.992,4.992,0,0,0-6.9,1.533,29.927,29.927,0,0,1-2.491,3.641c-4.6,6.706-11.3,16.67-11.3,23.184A17.665,17.665,0,0,0,59.819,270.7a17.381,17.381,0,0,0,12.263-4.982c.192,0,.192-.192.383-.192a17.648,17.648,0,0,0,5.173-12.646C77.639,246.363,70.932,236.4,66.334,229.693Zm-.575,28.932-.192.192a7.666,7.666,0,0,1-5.557,2.108,8.632,8.632,0,0,1-5.748-2.3,7.8,7.8,0,0,1-2.3-5.748c0-3.066,4.407-9.964,8.047-15.328,3.641,5.557,8.047,12.263,8.047,15.328A8.632,8.632,0,0,1,65.759,258.625Z" transform="translate(-42 -223.722)" fill="#fff"/>
      </g>
    </g>
  </g>
</svg>
