<svg xmlns="http://www.w3.org/2000/svg" width="203.711" height="173" viewBox="0 0 203.711 173">
  <g id="_11n" data-name="11n" transform="translate(0 -28.252)">
    <g id="Grupo_49" data-name="Grupo 49" transform="translate(0 28.252)">
      <path id="Caminho_19" data-name="Caminho 19" d="M189.8,77.169a48.424,48.424,0,0,0-33.7-13.914,32.108,32.108,0,0,0-4.566.217A60.609,60.609,0,0,0,37.394,75.212a42.1,42.1,0,0,0,4.783,83.92H83.92L70.44,193.7a5.461,5.461,0,0,0,3.261,7.174,5.378,5.378,0,0,0,6.3-1.739l35-40.221h40.873A48.55,48.55,0,0,0,189.8,145a47.629,47.629,0,0,0,13.914-33.916A48.55,48.55,0,0,0,189.8,77.169ZM108.7,149.348l-.652.652L92.181,168.045l4.783-12.392c.217-.217.217-.652.435-.87l.435-1.087a4.383,4.383,0,0,0,.652-2.391,5.756,5.756,0,0,0-5.653-5.653h-8.7l18.7-38.916h14.349l-14.566,24.35a4.992,4.992,0,0,0-.87,3.044,5.756,5.756,0,0,0,5.653,5.653h9.349Zm73.267-12.175A36.311,36.311,0,0,1,156.1,147.826H124.792l8.262-9.349a5.714,5.714,0,0,0-.435-7.827,5.9,5.9,0,0,0-3.7-1.3h-11.74l14.566-24.785a5.618,5.618,0,0,0-1.957-7.609,7.084,7.084,0,0,0-2.826-.87H99.138a5.764,5.764,0,0,0-5.218,3.479L70.658,147.826H42.177a30.8,30.8,0,0,1-30.655-30.872,30.906,30.906,0,0,1,8.914-21.741,30.57,30.57,0,0,1,21.741-9.131,4.383,4.383,0,0,0,2.391-.652h.217a5.332,5.332,0,0,0,2.391-3.913,48.371,48.371,0,0,1,16.74-30A49.764,49.764,0,0,1,96.094,39.557a50.007,50.007,0,0,1,43.916,26.524c-1.3.435-2.609,1.087-3.913,1.522A47.9,47.9,0,0,0,120.009,79.56a5.543,5.543,0,0,0,8.262,7.392,36.738,36.738,0,0,1,12.392-9.131,35.135,35.135,0,0,1,15-3.261,36.373,36.373,0,0,1,36.525,36.525A35.222,35.222,0,0,1,181.971,137.173Z" transform="translate(0 -28.252)" fill="#fff"/>
    </g>
  </g>
</svg>
